HIERARCHY
ROOT Hips
{
    OFFSET 0.0 0.0 0.0
    CHANNELS 6 Xposition Yposition Zposition Zrotation Xrotation Yrotation
    JOINT LeftHipJoint
    {
        OFFSET 0.1 0.0 0.0
        CHANNELS 3 Zrotation Xrotation Yrotation
        JOINT LeftUpLeg
        {
            OFFSET 124.78056233314899 0.0 0.0
            CHANNELS 3 Zrotation Xrotation Yrotation
            JOINT LeftLeg
            {
                OFFSET 0.0 0.0 -416.70714126515816
                CHANNELS 3 Zrotation Xrotation Yrotation
                JOINT LeftFoot
                {
                    OFFSET 0.0 0.0 -399.76017868809663
                    CHANNELS 3 Zrotation Xrotation Yrotation
                    End Site
                    {
                        OFFSET 0.0 -0.1 0.0
                    }
                }
            }
        }
    }
    JOINT LowerBack
    {
        OFFSET 0.0 0.0 0.1
        CHANNELS 3 Zrotation Xrotation Yrotation
        JOINT Spine
        {
            OFFSET 0.0 0.0 222.6822927033285
            CHANNELS 3 Zrotation Xrotation Yrotation
            JOINT Spine1
            {
                OFFSET 0.0 0.0 253.5136955838306
                CHANNELS 3 Zrotation Xrotation Yrotation
                JOINT LeftShoulder
                {
                    OFFSET 0.1 0.0 0.0
                    CHANNELS 3 Zrotation Xrotation Yrotation
                    JOINT LeftArm
                    {
                        OFFSET 150.10451770243162 0.0 0.0
                        CHANNELS 3 Zrotation Xrotation Yrotation
                        JOINT LeftForeArm
                        {
                            OFFSET 260.945874853942 0.0 0.0
                            CHANNELS 3 Zrotation Xrotation Yrotation
                            JOINT LeftHand
                            {
                                OFFSET 250.0741360799703 0.0 0.0
                                CHANNELS 3 Zrotation Xrotation Yrotation
                                End Site
                                {
                                    OFFSET 0.1 0.0 0.0
                                }
                            }
                        }
                    }
                }
                JOINT Neck
                {
                    OFFSET 0.0 0.0 0.1
                    CHANNELS 3 Zrotation Xrotation Yrotation
                    JOINT Neck1
                    {
                        OFFSET 0.0 0.0 110.78639035500615
                        CHANNELS 3 Zrotation Xrotation Yrotation
                        End Site
                        {
                            OFFSET 0.0 0.0 120.06080295944508
                        }
                    }
                }
                JOINT RightShoulder
                {
                    OFFSET -0.1 0.0 0.0
                    CHANNELS 3 Zrotation Xrotation Yrotation
                    JOINT RightArm
                    {
                        OFFSET -150.10451770243162 0.0 0.0
                        CHANNELS 3 Zrotation Xrotation Yrotation
                        JOINT RightForeArm
                        {
                            OFFSET -260.945874853942 0.0 0.0
                            CHANNELS 3 Zrotation Xrotation Yrotation
                            JOINT RightHand
                            {
                                OFFSET -250.0741360799703 0.0 0.0
                                CHANNELS 3 Zrotation Xrotation Yrotation
                                End Site
                                {
                                    OFFSET -0.1 0.0 0.0
                                }
                            }
                        }
                    }
                }
            }
        }
    }
    JOINT RightHipJoint
    {
        OFFSET -0.1 0.0 0.0
        CHANNELS 3 Zrotation Xrotation Yrotation
        JOINT RightUpLeg
        {
            OFFSET -124.78056233314899 0.0 0.0
            CHANNELS 3 Zrotation Xrotation Yrotation
            JOINT RightLeg
            {
                OFFSET 0.0 0.0 -416.70714126515816
                CHANNELS 3 Zrotation Xrotation Yrotation
                JOINT RightFoot
                {
                    OFFSET 0.0 0.0 -399.76017868809663
                    CHANNELS 3 Zrotation Xrotation Yrotation
                    End Site
                    {
                        OFFSET 0.0 -0.1 0.0
                    }
                }
            }
        }
    }
}
MOTION
Frames: 5
Frame Time: 0.03333333333333333
0.0 0.0 815.7067510948306 29.971396853037504 -14.856705476351506 6.261494806402621 0.0 0.0 0.0 -0.06966680390415826 2.6194565220724644 -2.6524497132920275 -2.1849496888470883 27.171721836859216 -3.0077797614047577 0.0 0.0 0.0 0.0 0.0 0.0 -0.16489000516527122 5.912714954512631 -3.82370252096515 -3.463560245752752 -1.8708581601886195e-15 1.1366886121775081e-15 0.0 -1.2424041724466861e-17 0.0 -85.8609300118027 14.332322133162895 61.81413028356493 -103.38287729146528 -1.2877915339948943e-14 -6.039690234829726e-15 0.0 0.0 1.5902773407317584e-15 0.0 -1.2424041724466861e-17 0.0 -8.156599156984239 -13.24382836833006 -5.053679051151689 0.0 -1.2424041724466861e-17 0.0 11.434803236030577 -40.19612315934443 -69.51420962504052 143.6032832084436 3.973246873698162e-15 -1.2085866066985835e-14 0.0 0.0 0.0 0.0 0.0 0.0 -0.3373345198006405 11.864067884896722 -6.267824395212738 -1.8322373906833154 12.98781498445564 4.707777270136466 0.0 0.0 -3.975693351829396e-16
0.0 0.0 815.7067510948306 29.936089668509968 -14.837340184165727 6.27736515261549 0.0 0.0 0.0 -0.06822702821482916 2.623125604770094 -2.666059816051064 -2.1642002426564866 27.060104201667187 -3.0402749722985263 0.0 0.0 0.0 0.0 0.0 0.0 -0.16081126568207924 5.89086658661379 -3.8700182963517356 -3.458255855824465 -1.5580852753482865e-15 3.5071475329518275e-16 0.0 0.0 0.0 -85.72311139247651 14.37255219030982 62.02574628253695 -102.88666937447692 -4.974337329815646e-15 3.964805222999047e-15 0.0 0.0 0.0 0.0 0.0 0.0 -8.171663623673764 -13.238203053850476 -5.201034429412015 0.0 0.0 0.0 11.420341978553475 -40.192569792088726 -69.2767522029372 143.52329694465624 -6.902190095985515e-17 -2.0115475615763294e-14 0.0 0.0 0.0 0.0 0.0 0.0 -0.331170312563331 11.895259280472317 -6.2934891452144575 -1.7993292294790781 12.775689751378147 4.748043485396939 0.0 0.0 -3.975693351829396e-16
0.0 0.0 815.7067510948306 29.963435396230476 -14.777504185641853 6.288329069667028 0.0 0.0 0.0 -0.06569471328770805 2.6113527750680263 -2.729947698581387 -2.1573924593143152 26.908674736684947 -2.910903073304634 0.0 0.0 -3.975693351829396e-16 0.0 0.0 0.0 -0.15459524968987684 5.849445354814645 -3.921996397165847 -3.499655061225822 1.3967746522304706e-15 -3.5508369821799247e-16 0.0 0.0 0.0 -85.62005540805924 14.40811492341424 62.166074565862644 -102.44411585473183 4.958988161980528e-15 -3.9839865381869635e-15 -3.1805546814635168e-15 0.0 0.0 0.0 0.0 0.0 -8.093611606493607 -13.120094321957886 -5.217119107788174 0.0 0.0 0.0 11.573661158293193 -40.04717889146376 -68.93639592561897 143.45317793643153 -1.5100813851787196e-15 -4.986343656243448e-16 0.0 0.0 0.0 0.0 0.0 0.0 -0.31830452392538605 11.80869007146904 -6.238255378013592 -1.7570968451798534 12.652753070406622 4.682993551733477 0.0 0.0 3.975693351829396e-16
0.0 0.0 815.7067510948306 29.91843075032636 -14.634262623261318 6.246585501123299 3.1805546814635168e-15 3.1805546814635168e-15 -1.5902773407317584e-15 -0.060833042342568096 2.452999854986025 -2.797635274548637 -2.175791513889729 26.824011144565347 -2.632556391955505 0.0 0.0 0.0 3.1805546814635168e-15 3.1805546814635168e-15 -1.5902773407317584e-15 -0.1504046874044656 5.751892779862552 -3.911562833796566 -3.5072504887053886 -3.042464636566061e-16 -9.314838614725308e-18 0.0 0.0 0.0 -85.54091563627519 14.45511600022843 62.26653068230762 -102.10588783726314 3.998606093790379e-15 4.9472074581343785e-15 0.0 0.0 1.5902773407317584e-15 0.0 0.0 0.0 -8.023350898700066 -13.056181096363753 -5.25167459552228 0.0 0.0 0.0 11.900614466092591 -40.00625528443108 -68.50239311397378 143.32608840388758 5.020290227389204e-15 -5.037492078572224e-15 0.0 -3.975693351829396e-16 0.0 3.1805546814635168e-15 3.1805546814635168e-15 -1.5902773407317584e-15 -0.31153532013727625 11.681391135979277 -6.136901264235503 -1.723569356906293 12.606859802800356 4.60930477298638 0.0 0.0 -3.975693351829396e-16
0.0 0.0 815.7067510948306 29.830772585494394 -14.557177531033837 6.17480826334835 0.0 0.0 0.0 -0.06019532944332531 2.474548400265642 -2.746076168741975 -2.1123596769981696 26.580747968880672 -2.6113858735796147 0.0 0.0 -3.975693351829396e-16 0.0 0.0 0.0 -0.14666309047886616 5.7200007642160084 -3.830649434313442 -3.4988914916801566 -4.036212398284497e-15 -5.210330952005848e-16 0.0 0.0 0.0 -85.39390646851122 14.465877902395626 62.48291813031152 -101.52110136647934 -4.926737341769475e-15 4.023800627806032e-15 0.0 0.0 -1.5902773407317584e-15 0.0 0.0 0.0 -7.928721899977866 -13.017949299727293 -5.40994703188074 0.0 0.0 0.0 12.118174645904977 -40.02704108045808 -68.22015079292514 143.18520021085266 5.036151903954706e-15 1.5084275787878604e-14 0.0 0.0 0.0 0.0 0.0 0.0 -0.3015649294601928 11.533745819666247 -5.99627479767894 -1.6971596538933382 12.697550773815031 4.524785795473349 0.0 0.0 0.0
